<?xml version="1.0" encoding="UTF-8"?>
<svg id="_图层_2" data-name="图层 2" xmlns="http://www.w3.org/2000/svg" viewBox="0 0 237.25 237.25">
  <defs>
    <style>
      .cls-1 {
        fill: #fff;
      }

      .cls-2 {
        opacity: .19;
      }
    </style>
  </defs>
  <g id="_1" data-name="1">
    <g class="cls-2">
      <g>
        <path class="cls-1" d="M95.41,140.08c-19.37.82-25.55,7.21-25.55,7.21,0,0,12.57-.41,18.54,2.75-10.51,11.4-33.59,19.92-59.69,21.5,10.17-30.84,16.48-34.27,36.54-43.89,20.06-9.62,27.85-21.73,43.62-39.08,15.77-17.35,39.43-31.22,61.82-35.96,16.77-3.54,35.83-3.37,44.35-3.06C193.52,19.56,158.37,0,118.63,0,53.11,0,0,53.11,0,118.63c0,32.03,12.72,61.08,33.35,82.42,42.87-19.99,58.07-49.22,62.05-60.97ZM144.18,21.8c7.22,0,13.07,5.85,13.07,13.07s-5.85,13.07-13.07,13.07-13.07-5.85-13.07-13.07,5.85-13.07,13.07-13.07ZM43.89,107.1s35.22-9.36,50.91-47.88c0,0,14.58,3.03,28.07-3.3-7.15,19.26-46.23,52.83-80.9,60.54l1.93-9.36Z"/>
        <path class="cls-1" d="M221.56,59.68c-17.51-1.02-44.74.3-61.66,10.55-20.4,12.36-23.49,32.56-31.32,56.46-7.83,23.9-11.74,39.56-35.65,60.17-17.89,15.42-37.28,23.34-45.9,26.35,19.9,15.09,44.7,24.05,71.59,24.05,65.52,0,118.63-53.11,118.63-118.63,0-21.46-5.73-41.58-15.7-58.94ZM152.07,193.04c-5.56-8.45-10.92-12.77-16.07-19.57-5.15-6.8-7.42-13.39-3.09-22.46,4.95,3.92,10.92,13.19,12.16,17.51-1.85-6.8-6.17-16.96-6.8-18.48,0,0,26.99,14.15,13.8,43ZM183.53,152.78c-24.63,5.5-36.73-5.78-45.26-10.46,16.78-1.38,35.5-7.43,45.26-18.16-15.82,6.88-29.58,10.73-45.26,9.36,0,0,4.68-17.06,35.77-23.11,31.09-6.05,36.32,2.48,54.76-5.78-7.43,20.36-20.64,42.65-45.26,48.15Z"/>
      </g>
    </g>
  </g>
</svg>